<mxfile host="app.diagrams.net" agent="Mozilla/5.0 (Windows NT 10.0; Win64; x64) AppleWebKit/537.36 (KHTML, like Gecko) Chrome/134.0.0.0 Safari/537.36" version="26.1.1">
  <diagram id="ISojjZmlDqaVwG6H8PDd" name="Page-1">
    <mxGraphModel dx="101" dy="55" grid="1" gridSize="1" guides="1" tooltips="1" connect="1" arrows="1" fold="1" page="1" pageScale="1" pageWidth="850" pageHeight="1100" math="0" shadow="0">
      <root>
        <mxCell id="0" />
        <mxCell id="1" parent="0" />
        <mxCell id="9gs5YKk_nrRMM-lnY65F-1" value="0" style="rounded=1;whiteSpace=wrap;html=1;fillColor=#d5e8d4;strokeColor=#82b366;fontSize=4;" parent="1" vertex="1">
          <mxGeometry x="160" y="440" width="6" height="20" as="geometry" />
        </mxCell>
        <mxCell id="9gs5YKk_nrRMM-lnY65F-26" value="1" style="rounded=1;whiteSpace=wrap;html=1;fillColor=#ffe6cc;strokeColor=#d79b00;fontSize=9;" parent="1" vertex="1">
          <mxGeometry x="160" y="420" width="30" height="20" as="geometry" />
        </mxCell>
        <mxCell id="9gs5YKk_nrRMM-lnY65F-29" value="Audio block" style="rounded=1;whiteSpace=wrap;html=1;fillColor=#dae8fc;strokeColor=#6c8ebf;" parent="1" vertex="1">
          <mxGeometry x="160" y="380" width="740" height="20" as="geometry" />
        </mxCell>
        <mxCell id="9gs5YKk_nrRMM-lnY65F-62" value="Frame 1" style="rounded=1;whiteSpace=wrap;html=1;fillColor=#f8cecc;strokeColor=#b85450;" parent="1" vertex="1">
          <mxGeometry x="160" y="400" width="240" height="20" as="geometry" />
        </mxCell>
        <mxCell id="9gs5YKk_nrRMM-lnY65F-77" value="Frame 2" style="rounded=1;whiteSpace=wrap;html=1;fillColor=#f8cecc;strokeColor=#b85450;" parent="1" vertex="1">
          <mxGeometry x="400" y="400" width="240" height="20" as="geometry" />
        </mxCell>
        <mxCell id="9gs5YKk_nrRMM-lnY65F-90" value="Frame 48" style="rounded=1;whiteSpace=wrap;html=1;fillColor=#f8cecc;strokeColor=#b85450;" parent="1" vertex="1">
          <mxGeometry x="660" y="400" width="240" height="20" as="geometry" />
        </mxCell>
        <mxCell id="9gs5YKk_nrRMM-lnY65F-104" style="edgeStyle=orthogonalEdgeStyle;rounded=0;orthogonalLoop=1;jettySize=auto;html=1;exitX=1;exitY=0.5;exitDx=0;exitDy=0;entryX=-0.005;entryY=0.504;entryDx=0;entryDy=0;entryPerimeter=0;" parent="1" source="9gs5YKk_nrRMM-lnY65F-77" target="9gs5YKk_nrRMM-lnY65F-90" edge="1">
          <mxGeometry relative="1" as="geometry" />
        </mxCell>
        <mxCell id="9gs5YKk_nrRMM-lnY65F-106" value="Blocks" style="text;html=1;align=center;verticalAlign=middle;whiteSpace=wrap;rounded=0;" parent="1" vertex="1">
          <mxGeometry x="60" y="380" width="80" height="20" as="geometry" />
        </mxCell>
        <mxCell id="9gs5YKk_nrRMM-lnY65F-108" value="Frames" style="text;html=1;align=center;verticalAlign=middle;whiteSpace=wrap;rounded=0;" parent="1" vertex="1">
          <mxGeometry x="60" y="400" width="80" height="20" as="geometry" />
        </mxCell>
        <mxCell id="9gs5YKk_nrRMM-lnY65F-109" value="Subframes" style="text;html=1;align=center;verticalAlign=middle;whiteSpace=wrap;rounded=0;" parent="1" vertex="1">
          <mxGeometry x="60" y="420" width="80" height="20" as="geometry" />
        </mxCell>
        <mxCell id="9gs5YKk_nrRMM-lnY65F-110" value="Time slots" style="text;html=1;align=center;verticalAlign=middle;whiteSpace=wrap;rounded=0;" parent="1" vertex="1">
          <mxGeometry x="60" y="440" width="80" height="20" as="geometry" />
        </mxCell>
        <mxCell id="qBWs9l1PIJ6vJ8OqAvsf-2" value="2" style="rounded=1;whiteSpace=wrap;html=1;fillColor=#ffe6cc;strokeColor=#d79b00;fontSize=9;" vertex="1" parent="1">
          <mxGeometry x="190" y="420" width="30" height="20" as="geometry" />
        </mxCell>
        <mxCell id="qBWs9l1PIJ6vJ8OqAvsf-3" value="3" style="rounded=1;whiteSpace=wrap;html=1;fillColor=#ffe6cc;strokeColor=#d79b00;fontSize=9;" vertex="1" parent="1">
          <mxGeometry x="220" y="420" width="30" height="20" as="geometry" />
        </mxCell>
        <mxCell id="qBWs9l1PIJ6vJ8OqAvsf-4" value="4" style="rounded=1;whiteSpace=wrap;html=1;fillColor=#ffe6cc;strokeColor=#d79b00;fontSize=9;" vertex="1" parent="1">
          <mxGeometry x="250" y="420" width="30" height="20" as="geometry" />
        </mxCell>
        <mxCell id="qBWs9l1PIJ6vJ8OqAvsf-5" value="5" style="rounded=1;whiteSpace=wrap;html=1;fillColor=#ffe6cc;strokeColor=#d79b00;fontSize=9;" vertex="1" parent="1">
          <mxGeometry x="280" y="420" width="30" height="20" as="geometry" />
        </mxCell>
        <mxCell id="qBWs9l1PIJ6vJ8OqAvsf-6" value="6" style="rounded=1;whiteSpace=wrap;html=1;fillColor=#ffe6cc;strokeColor=#d79b00;fontSize=9;" vertex="1" parent="1">
          <mxGeometry x="310" y="420" width="30" height="20" as="geometry" />
        </mxCell>
        <mxCell id="qBWs9l1PIJ6vJ8OqAvsf-7" value="7" style="rounded=1;whiteSpace=wrap;html=1;fillColor=#ffe6cc;strokeColor=#d79b00;fontSize=9;" vertex="1" parent="1">
          <mxGeometry x="340" y="420" width="30" height="20" as="geometry" />
        </mxCell>
        <mxCell id="qBWs9l1PIJ6vJ8OqAvsf-8" value="8" style="rounded=1;whiteSpace=wrap;html=1;fillColor=#ffe6cc;strokeColor=#d79b00;fontSize=9;" vertex="1" parent="1">
          <mxGeometry x="370" y="420" width="30" height="20" as="geometry" />
        </mxCell>
        <mxCell id="qBWs9l1PIJ6vJ8OqAvsf-9" value="1" style="rounded=1;whiteSpace=wrap;html=1;fillColor=#ffe6cc;strokeColor=#d79b00;fontSize=9;" vertex="1" parent="1">
          <mxGeometry x="400" y="420" width="30" height="20" as="geometry" />
        </mxCell>
        <mxCell id="qBWs9l1PIJ6vJ8OqAvsf-10" value="2" style="rounded=1;whiteSpace=wrap;html=1;fillColor=#ffe6cc;strokeColor=#d79b00;fontSize=9;" vertex="1" parent="1">
          <mxGeometry x="430" y="420" width="30" height="20" as="geometry" />
        </mxCell>
        <mxCell id="qBWs9l1PIJ6vJ8OqAvsf-11" value="3" style="rounded=1;whiteSpace=wrap;html=1;fillColor=#ffe6cc;strokeColor=#d79b00;fontSize=9;" vertex="1" parent="1">
          <mxGeometry x="460" y="420" width="30" height="20" as="geometry" />
        </mxCell>
        <mxCell id="qBWs9l1PIJ6vJ8OqAvsf-12" value="4" style="rounded=1;whiteSpace=wrap;html=1;fillColor=#ffe6cc;strokeColor=#d79b00;fontSize=9;" vertex="1" parent="1">
          <mxGeometry x="490" y="420" width="30" height="20" as="geometry" />
        </mxCell>
        <mxCell id="qBWs9l1PIJ6vJ8OqAvsf-13" value="5" style="rounded=1;whiteSpace=wrap;html=1;fillColor=#ffe6cc;strokeColor=#d79b00;fontSize=9;" vertex="1" parent="1">
          <mxGeometry x="520" y="420" width="30" height="20" as="geometry" />
        </mxCell>
        <mxCell id="qBWs9l1PIJ6vJ8OqAvsf-14" value="6" style="rounded=1;whiteSpace=wrap;html=1;fillColor=#ffe6cc;strokeColor=#d79b00;fontSize=9;" vertex="1" parent="1">
          <mxGeometry x="550" y="420" width="30" height="20" as="geometry" />
        </mxCell>
        <mxCell id="qBWs9l1PIJ6vJ8OqAvsf-15" value="7" style="rounded=1;whiteSpace=wrap;html=1;fillColor=#ffe6cc;strokeColor=#d79b00;fontSize=9;" vertex="1" parent="1">
          <mxGeometry x="580" y="420" width="30" height="20" as="geometry" />
        </mxCell>
        <mxCell id="qBWs9l1PIJ6vJ8OqAvsf-16" value="8" style="rounded=1;whiteSpace=wrap;html=1;fillColor=#ffe6cc;strokeColor=#d79b00;fontSize=9;" vertex="1" parent="1">
          <mxGeometry x="610" y="420" width="30" height="20" as="geometry" />
        </mxCell>
        <mxCell id="qBWs9l1PIJ6vJ8OqAvsf-18" value="1" style="rounded=1;whiteSpace=wrap;html=1;fillColor=#ffe6cc;strokeColor=#d79b00;fontSize=9;" vertex="1" parent="1">
          <mxGeometry x="660" y="420" width="30" height="20" as="geometry" />
        </mxCell>
        <mxCell id="qBWs9l1PIJ6vJ8OqAvsf-19" value="2" style="rounded=1;whiteSpace=wrap;html=1;fillColor=#ffe6cc;strokeColor=#d79b00;fontSize=9;" vertex="1" parent="1">
          <mxGeometry x="690" y="420" width="30" height="20" as="geometry" />
        </mxCell>
        <mxCell id="qBWs9l1PIJ6vJ8OqAvsf-20" value="3" style="rounded=1;whiteSpace=wrap;html=1;fillColor=#ffe6cc;strokeColor=#d79b00;fontSize=9;" vertex="1" parent="1">
          <mxGeometry x="720" y="420" width="30" height="20" as="geometry" />
        </mxCell>
        <mxCell id="qBWs9l1PIJ6vJ8OqAvsf-21" value="4" style="rounded=1;whiteSpace=wrap;html=1;fillColor=#ffe6cc;strokeColor=#d79b00;fontSize=9;" vertex="1" parent="1">
          <mxGeometry x="750" y="420" width="30" height="20" as="geometry" />
        </mxCell>
        <mxCell id="qBWs9l1PIJ6vJ8OqAvsf-22" value="5" style="rounded=1;whiteSpace=wrap;html=1;fillColor=#ffe6cc;strokeColor=#d79b00;fontSize=9;" vertex="1" parent="1">
          <mxGeometry x="780" y="420" width="30" height="20" as="geometry" />
        </mxCell>
        <mxCell id="qBWs9l1PIJ6vJ8OqAvsf-23" value="6" style="rounded=1;whiteSpace=wrap;html=1;fillColor=#ffe6cc;strokeColor=#d79b00;fontSize=9;" vertex="1" parent="1">
          <mxGeometry x="810" y="420" width="30" height="20" as="geometry" />
        </mxCell>
        <mxCell id="qBWs9l1PIJ6vJ8OqAvsf-24" value="7" style="rounded=1;whiteSpace=wrap;html=1;fillColor=#ffe6cc;strokeColor=#d79b00;fontSize=9;" vertex="1" parent="1">
          <mxGeometry x="840" y="420" width="30" height="20" as="geometry" />
        </mxCell>
        <mxCell id="qBWs9l1PIJ6vJ8OqAvsf-25" value="8" style="rounded=1;whiteSpace=wrap;html=1;fillColor=#ffe6cc;strokeColor=#d79b00;fontSize=9;" vertex="1" parent="1">
          <mxGeometry x="870" y="420" width="30" height="20" as="geometry" />
        </mxCell>
        <mxCell id="qBWs9l1PIJ6vJ8OqAvsf-26" value="1" style="rounded=1;whiteSpace=wrap;html=1;fillColor=#d5e8d4;strokeColor=#82b366;fontSize=4;" vertex="1" parent="1">
          <mxGeometry x="166" y="440" width="6" height="20" as="geometry" />
        </mxCell>
        <mxCell id="qBWs9l1PIJ6vJ8OqAvsf-27" value="31" style="rounded=1;whiteSpace=wrap;html=1;fillColor=#d5e8d4;strokeColor=#82b366;fontSize=4;" vertex="1" parent="1">
          <mxGeometry x="182" y="440" width="8" height="20" as="geometry" />
        </mxCell>
        <mxCell id="qBWs9l1PIJ6vJ8OqAvsf-29" style="edgeStyle=orthogonalEdgeStyle;rounded=0;orthogonalLoop=1;jettySize=auto;html=1;exitX=1;exitY=0.5;exitDx=0;exitDy=0;entryX=0;entryY=0.5;entryDx=0;entryDy=0;strokeWidth=1;endSize=0;fontSize=4;endArrow=block;endFill=1;" edge="1" parent="1" source="qBWs9l1PIJ6vJ8OqAvsf-28" target="qBWs9l1PIJ6vJ8OqAvsf-27">
          <mxGeometry relative="1" as="geometry" />
        </mxCell>
        <mxCell id="qBWs9l1PIJ6vJ8OqAvsf-28" value="2" style="rounded=1;whiteSpace=wrap;html=1;fillColor=#d5e8d4;strokeColor=#82b366;fontSize=4;" vertex="1" parent="1">
          <mxGeometry x="172" y="440" width="6" height="20" as="geometry" />
        </mxCell>
        <mxCell id="qBWs9l1PIJ6vJ8OqAvsf-186" value="0" style="rounded=1;whiteSpace=wrap;html=1;fillColor=#d5e8d4;strokeColor=#82b366;fontSize=4;" vertex="1" parent="1">
          <mxGeometry x="190" y="440" width="6" height="20" as="geometry" />
        </mxCell>
        <mxCell id="qBWs9l1PIJ6vJ8OqAvsf-187" value="1" style="rounded=1;whiteSpace=wrap;html=1;fillColor=#d5e8d4;strokeColor=#82b366;fontSize=4;" vertex="1" parent="1">
          <mxGeometry x="196" y="440" width="6" height="20" as="geometry" />
        </mxCell>
        <mxCell id="qBWs9l1PIJ6vJ8OqAvsf-188" value="31" style="rounded=1;whiteSpace=wrap;html=1;fillColor=#d5e8d4;strokeColor=#82b366;fontSize=4;" vertex="1" parent="1">
          <mxGeometry x="212" y="440" width="8" height="20" as="geometry" />
        </mxCell>
        <mxCell id="qBWs9l1PIJ6vJ8OqAvsf-189" style="edgeStyle=orthogonalEdgeStyle;rounded=0;orthogonalLoop=1;jettySize=auto;html=1;exitX=1;exitY=0.5;exitDx=0;exitDy=0;entryX=0;entryY=0.5;entryDx=0;entryDy=0;strokeWidth=1;endSize=0;fontSize=4;endArrow=block;endFill=1;" edge="1" parent="1" source="qBWs9l1PIJ6vJ8OqAvsf-190" target="qBWs9l1PIJ6vJ8OqAvsf-188">
          <mxGeometry relative="1" as="geometry" />
        </mxCell>
        <mxCell id="qBWs9l1PIJ6vJ8OqAvsf-190" value="2" style="rounded=1;whiteSpace=wrap;html=1;fillColor=#d5e8d4;strokeColor=#82b366;fontSize=4;" vertex="1" parent="1">
          <mxGeometry x="202" y="440" width="6" height="20" as="geometry" />
        </mxCell>
        <mxCell id="qBWs9l1PIJ6vJ8OqAvsf-191" value="0" style="rounded=1;whiteSpace=wrap;html=1;fillColor=#d5e8d4;strokeColor=#82b366;fontSize=4;" vertex="1" parent="1">
          <mxGeometry x="220" y="440" width="6" height="20" as="geometry" />
        </mxCell>
        <mxCell id="qBWs9l1PIJ6vJ8OqAvsf-192" value="1" style="rounded=1;whiteSpace=wrap;html=1;fillColor=#d5e8d4;strokeColor=#82b366;fontSize=4;" vertex="1" parent="1">
          <mxGeometry x="226" y="440" width="6" height="20" as="geometry" />
        </mxCell>
        <mxCell id="qBWs9l1PIJ6vJ8OqAvsf-193" value="31" style="rounded=1;whiteSpace=wrap;html=1;fillColor=#d5e8d4;strokeColor=#82b366;fontSize=4;" vertex="1" parent="1">
          <mxGeometry x="242" y="440" width="8" height="20" as="geometry" />
        </mxCell>
        <mxCell id="qBWs9l1PIJ6vJ8OqAvsf-194" style="edgeStyle=orthogonalEdgeStyle;rounded=0;orthogonalLoop=1;jettySize=auto;html=1;exitX=1;exitY=0.5;exitDx=0;exitDy=0;entryX=0;entryY=0.5;entryDx=0;entryDy=0;strokeWidth=1;endSize=0;fontSize=4;endArrow=block;endFill=1;" edge="1" parent="1" source="qBWs9l1PIJ6vJ8OqAvsf-195" target="qBWs9l1PIJ6vJ8OqAvsf-193">
          <mxGeometry relative="1" as="geometry" />
        </mxCell>
        <mxCell id="qBWs9l1PIJ6vJ8OqAvsf-195" value="2" style="rounded=1;whiteSpace=wrap;html=1;fillColor=#d5e8d4;strokeColor=#82b366;fontSize=4;" vertex="1" parent="1">
          <mxGeometry x="232" y="440" width="6" height="20" as="geometry" />
        </mxCell>
        <mxCell id="qBWs9l1PIJ6vJ8OqAvsf-196" value="0" style="rounded=1;whiteSpace=wrap;html=1;fillColor=#d5e8d4;strokeColor=#82b366;fontSize=4;" vertex="1" parent="1">
          <mxGeometry x="250" y="440" width="6" height="20" as="geometry" />
        </mxCell>
        <mxCell id="qBWs9l1PIJ6vJ8OqAvsf-197" value="1" style="rounded=1;whiteSpace=wrap;html=1;fillColor=#d5e8d4;strokeColor=#82b366;fontSize=4;" vertex="1" parent="1">
          <mxGeometry x="256" y="440" width="6" height="20" as="geometry" />
        </mxCell>
        <mxCell id="qBWs9l1PIJ6vJ8OqAvsf-198" value="31" style="rounded=1;whiteSpace=wrap;html=1;fillColor=#d5e8d4;strokeColor=#82b366;fontSize=4;" vertex="1" parent="1">
          <mxGeometry x="272" y="440" width="8" height="20" as="geometry" />
        </mxCell>
        <mxCell id="qBWs9l1PIJ6vJ8OqAvsf-199" style="edgeStyle=orthogonalEdgeStyle;rounded=0;orthogonalLoop=1;jettySize=auto;html=1;exitX=1;exitY=0.5;exitDx=0;exitDy=0;entryX=0;entryY=0.5;entryDx=0;entryDy=0;strokeWidth=1;endSize=0;fontSize=4;endArrow=block;endFill=1;" edge="1" parent="1" source="qBWs9l1PIJ6vJ8OqAvsf-200" target="qBWs9l1PIJ6vJ8OqAvsf-198">
          <mxGeometry relative="1" as="geometry" />
        </mxCell>
        <mxCell id="qBWs9l1PIJ6vJ8OqAvsf-200" value="2" style="rounded=1;whiteSpace=wrap;html=1;fillColor=#d5e8d4;strokeColor=#82b366;fontSize=4;" vertex="1" parent="1">
          <mxGeometry x="262" y="440" width="6" height="20" as="geometry" />
        </mxCell>
        <mxCell id="qBWs9l1PIJ6vJ8OqAvsf-211" value="0" style="rounded=1;whiteSpace=wrap;html=1;fillColor=#d5e8d4;strokeColor=#82b366;fontSize=4;" vertex="1" parent="1">
          <mxGeometry x="280" y="440" width="6" height="20" as="geometry" />
        </mxCell>
        <mxCell id="qBWs9l1PIJ6vJ8OqAvsf-212" value="1" style="rounded=1;whiteSpace=wrap;html=1;fillColor=#d5e8d4;strokeColor=#82b366;fontSize=4;" vertex="1" parent="1">
          <mxGeometry x="286" y="440" width="6" height="20" as="geometry" />
        </mxCell>
        <mxCell id="qBWs9l1PIJ6vJ8OqAvsf-213" value="31" style="rounded=1;whiteSpace=wrap;html=1;fillColor=#d5e8d4;strokeColor=#82b366;fontSize=4;" vertex="1" parent="1">
          <mxGeometry x="302" y="440" width="8" height="20" as="geometry" />
        </mxCell>
        <mxCell id="qBWs9l1PIJ6vJ8OqAvsf-214" style="edgeStyle=orthogonalEdgeStyle;rounded=0;orthogonalLoop=1;jettySize=auto;html=1;exitX=1;exitY=0.5;exitDx=0;exitDy=0;entryX=0;entryY=0.5;entryDx=0;entryDy=0;strokeWidth=1;endSize=0;fontSize=4;endArrow=block;endFill=1;" edge="1" parent="1" source="qBWs9l1PIJ6vJ8OqAvsf-215" target="qBWs9l1PIJ6vJ8OqAvsf-213">
          <mxGeometry relative="1" as="geometry" />
        </mxCell>
        <mxCell id="qBWs9l1PIJ6vJ8OqAvsf-215" value="2" style="rounded=1;whiteSpace=wrap;html=1;fillColor=#d5e8d4;strokeColor=#82b366;fontSize=4;" vertex="1" parent="1">
          <mxGeometry x="292" y="440" width="6" height="20" as="geometry" />
        </mxCell>
        <mxCell id="qBWs9l1PIJ6vJ8OqAvsf-216" value="0" style="rounded=1;whiteSpace=wrap;html=1;fillColor=#d5e8d4;strokeColor=#82b366;fontSize=4;" vertex="1" parent="1">
          <mxGeometry x="310" y="440" width="6" height="20" as="geometry" />
        </mxCell>
        <mxCell id="qBWs9l1PIJ6vJ8OqAvsf-217" value="1" style="rounded=1;whiteSpace=wrap;html=1;fillColor=#d5e8d4;strokeColor=#82b366;fontSize=4;" vertex="1" parent="1">
          <mxGeometry x="316" y="440" width="6" height="20" as="geometry" />
        </mxCell>
        <mxCell id="qBWs9l1PIJ6vJ8OqAvsf-218" value="31" style="rounded=1;whiteSpace=wrap;html=1;fillColor=#d5e8d4;strokeColor=#82b366;fontSize=4;" vertex="1" parent="1">
          <mxGeometry x="332" y="440" width="8" height="20" as="geometry" />
        </mxCell>
        <mxCell id="qBWs9l1PIJ6vJ8OqAvsf-219" style="edgeStyle=orthogonalEdgeStyle;rounded=0;orthogonalLoop=1;jettySize=auto;html=1;exitX=1;exitY=0.5;exitDx=0;exitDy=0;entryX=0;entryY=0.5;entryDx=0;entryDy=0;strokeWidth=1;endSize=0;fontSize=4;endArrow=block;endFill=1;" edge="1" parent="1" source="qBWs9l1PIJ6vJ8OqAvsf-220" target="qBWs9l1PIJ6vJ8OqAvsf-218">
          <mxGeometry relative="1" as="geometry" />
        </mxCell>
        <mxCell id="qBWs9l1PIJ6vJ8OqAvsf-220" value="2" style="rounded=1;whiteSpace=wrap;html=1;fillColor=#d5e8d4;strokeColor=#82b366;fontSize=4;" vertex="1" parent="1">
          <mxGeometry x="322" y="440" width="6" height="20" as="geometry" />
        </mxCell>
        <mxCell id="qBWs9l1PIJ6vJ8OqAvsf-221" value="0" style="rounded=1;whiteSpace=wrap;html=1;fillColor=#d5e8d4;strokeColor=#82b366;fontSize=4;" vertex="1" parent="1">
          <mxGeometry x="340" y="440" width="6" height="20" as="geometry" />
        </mxCell>
        <mxCell id="qBWs9l1PIJ6vJ8OqAvsf-222" value="1" style="rounded=1;whiteSpace=wrap;html=1;fillColor=#d5e8d4;strokeColor=#82b366;fontSize=4;" vertex="1" parent="1">
          <mxGeometry x="346" y="440" width="6" height="20" as="geometry" />
        </mxCell>
        <mxCell id="qBWs9l1PIJ6vJ8OqAvsf-223" value="31" style="rounded=1;whiteSpace=wrap;html=1;fillColor=#d5e8d4;strokeColor=#82b366;fontSize=4;" vertex="1" parent="1">
          <mxGeometry x="362" y="440" width="8" height="20" as="geometry" />
        </mxCell>
        <mxCell id="qBWs9l1PIJ6vJ8OqAvsf-224" style="edgeStyle=orthogonalEdgeStyle;rounded=0;orthogonalLoop=1;jettySize=auto;html=1;exitX=1;exitY=0.5;exitDx=0;exitDy=0;entryX=0;entryY=0.5;entryDx=0;entryDy=0;strokeWidth=1;endSize=0;fontSize=4;endArrow=block;endFill=1;" edge="1" parent="1" source="qBWs9l1PIJ6vJ8OqAvsf-225" target="qBWs9l1PIJ6vJ8OqAvsf-223">
          <mxGeometry relative="1" as="geometry" />
        </mxCell>
        <mxCell id="qBWs9l1PIJ6vJ8OqAvsf-225" value="2" style="rounded=1;whiteSpace=wrap;html=1;fillColor=#d5e8d4;strokeColor=#82b366;fontSize=4;" vertex="1" parent="1">
          <mxGeometry x="352" y="440" width="6" height="20" as="geometry" />
        </mxCell>
        <mxCell id="qBWs9l1PIJ6vJ8OqAvsf-226" value="0" style="rounded=1;whiteSpace=wrap;html=1;fillColor=#d5e8d4;strokeColor=#82b366;fontSize=4;" vertex="1" parent="1">
          <mxGeometry x="370" y="440" width="6" height="20" as="geometry" />
        </mxCell>
        <mxCell id="qBWs9l1PIJ6vJ8OqAvsf-227" value="1" style="rounded=1;whiteSpace=wrap;html=1;fillColor=#d5e8d4;strokeColor=#82b366;fontSize=4;" vertex="1" parent="1">
          <mxGeometry x="376" y="440" width="6" height="20" as="geometry" />
        </mxCell>
        <mxCell id="qBWs9l1PIJ6vJ8OqAvsf-228" value="31" style="rounded=1;whiteSpace=wrap;html=1;fillColor=#d5e8d4;strokeColor=#82b366;fontSize=4;" vertex="1" parent="1">
          <mxGeometry x="392" y="440" width="8" height="20" as="geometry" />
        </mxCell>
        <mxCell id="qBWs9l1PIJ6vJ8OqAvsf-229" style="edgeStyle=orthogonalEdgeStyle;rounded=0;orthogonalLoop=1;jettySize=auto;html=1;exitX=1;exitY=0.5;exitDx=0;exitDy=0;entryX=0;entryY=0.5;entryDx=0;entryDy=0;strokeWidth=1;endSize=0;fontSize=4;endArrow=block;endFill=1;" edge="1" parent="1" source="qBWs9l1PIJ6vJ8OqAvsf-230" target="qBWs9l1PIJ6vJ8OqAvsf-228">
          <mxGeometry relative="1" as="geometry" />
        </mxCell>
        <mxCell id="qBWs9l1PIJ6vJ8OqAvsf-230" value="2" style="rounded=1;whiteSpace=wrap;html=1;fillColor=#d5e8d4;strokeColor=#82b366;fontSize=4;" vertex="1" parent="1">
          <mxGeometry x="382" y="440" width="6" height="20" as="geometry" />
        </mxCell>
        <mxCell id="qBWs9l1PIJ6vJ8OqAvsf-231" value="0" style="rounded=1;whiteSpace=wrap;html=1;fillColor=#d5e8d4;strokeColor=#82b366;fontSize=4;" vertex="1" parent="1">
          <mxGeometry x="400" y="440" width="6" height="20" as="geometry" />
        </mxCell>
        <mxCell id="qBWs9l1PIJ6vJ8OqAvsf-232" value="1" style="rounded=1;whiteSpace=wrap;html=1;fillColor=#d5e8d4;strokeColor=#82b366;fontSize=4;" vertex="1" parent="1">
          <mxGeometry x="406" y="440" width="6" height="20" as="geometry" />
        </mxCell>
        <mxCell id="qBWs9l1PIJ6vJ8OqAvsf-233" value="31" style="rounded=1;whiteSpace=wrap;html=1;fillColor=#d5e8d4;strokeColor=#82b366;fontSize=4;" vertex="1" parent="1">
          <mxGeometry x="422" y="440" width="8" height="20" as="geometry" />
        </mxCell>
        <mxCell id="qBWs9l1PIJ6vJ8OqAvsf-234" style="edgeStyle=orthogonalEdgeStyle;rounded=0;orthogonalLoop=1;jettySize=auto;html=1;exitX=1;exitY=0.5;exitDx=0;exitDy=0;entryX=0;entryY=0.5;entryDx=0;entryDy=0;strokeWidth=1;endSize=0;fontSize=4;endArrow=block;endFill=1;" edge="1" parent="1" source="qBWs9l1PIJ6vJ8OqAvsf-235" target="qBWs9l1PIJ6vJ8OqAvsf-233">
          <mxGeometry relative="1" as="geometry" />
        </mxCell>
        <mxCell id="qBWs9l1PIJ6vJ8OqAvsf-235" value="2" style="rounded=1;whiteSpace=wrap;html=1;fillColor=#d5e8d4;strokeColor=#82b366;fontSize=4;" vertex="1" parent="1">
          <mxGeometry x="412" y="440" width="6" height="20" as="geometry" />
        </mxCell>
        <mxCell id="qBWs9l1PIJ6vJ8OqAvsf-236" value="0" style="rounded=1;whiteSpace=wrap;html=1;fillColor=#d5e8d4;strokeColor=#82b366;fontSize=4;" vertex="1" parent="1">
          <mxGeometry x="430" y="440" width="6" height="20" as="geometry" />
        </mxCell>
        <mxCell id="qBWs9l1PIJ6vJ8OqAvsf-237" value="1" style="rounded=1;whiteSpace=wrap;html=1;fillColor=#d5e8d4;strokeColor=#82b366;fontSize=4;" vertex="1" parent="1">
          <mxGeometry x="436" y="440" width="6" height="20" as="geometry" />
        </mxCell>
        <mxCell id="qBWs9l1PIJ6vJ8OqAvsf-238" value="31" style="rounded=1;whiteSpace=wrap;html=1;fillColor=#d5e8d4;strokeColor=#82b366;fontSize=4;" vertex="1" parent="1">
          <mxGeometry x="452" y="440" width="8" height="20" as="geometry" />
        </mxCell>
        <mxCell id="qBWs9l1PIJ6vJ8OqAvsf-239" style="edgeStyle=orthogonalEdgeStyle;rounded=0;orthogonalLoop=1;jettySize=auto;html=1;exitX=1;exitY=0.5;exitDx=0;exitDy=0;entryX=0;entryY=0.5;entryDx=0;entryDy=0;strokeWidth=1;endSize=0;fontSize=4;endArrow=block;endFill=1;" edge="1" parent="1" source="qBWs9l1PIJ6vJ8OqAvsf-240" target="qBWs9l1PIJ6vJ8OqAvsf-238">
          <mxGeometry relative="1" as="geometry" />
        </mxCell>
        <mxCell id="qBWs9l1PIJ6vJ8OqAvsf-240" value="2" style="rounded=1;whiteSpace=wrap;html=1;fillColor=#d5e8d4;strokeColor=#82b366;fontSize=4;" vertex="1" parent="1">
          <mxGeometry x="442" y="440" width="6" height="20" as="geometry" />
        </mxCell>
        <mxCell id="qBWs9l1PIJ6vJ8OqAvsf-241" value="0" style="rounded=1;whiteSpace=wrap;html=1;fillColor=#d5e8d4;strokeColor=#82b366;fontSize=4;" vertex="1" parent="1">
          <mxGeometry x="460" y="440" width="6" height="20" as="geometry" />
        </mxCell>
        <mxCell id="qBWs9l1PIJ6vJ8OqAvsf-242" value="1" style="rounded=1;whiteSpace=wrap;html=1;fillColor=#d5e8d4;strokeColor=#82b366;fontSize=4;" vertex="1" parent="1">
          <mxGeometry x="466" y="440" width="6" height="20" as="geometry" />
        </mxCell>
        <mxCell id="qBWs9l1PIJ6vJ8OqAvsf-243" value="31" style="rounded=1;whiteSpace=wrap;html=1;fillColor=#d5e8d4;strokeColor=#82b366;fontSize=4;" vertex="1" parent="1">
          <mxGeometry x="482" y="440" width="8" height="20" as="geometry" />
        </mxCell>
        <mxCell id="qBWs9l1PIJ6vJ8OqAvsf-244" style="edgeStyle=orthogonalEdgeStyle;rounded=0;orthogonalLoop=1;jettySize=auto;html=1;exitX=1;exitY=0.5;exitDx=0;exitDy=0;entryX=0;entryY=0.5;entryDx=0;entryDy=0;strokeWidth=1;endSize=0;fontSize=4;endArrow=block;endFill=1;" edge="1" parent="1" source="qBWs9l1PIJ6vJ8OqAvsf-245" target="qBWs9l1PIJ6vJ8OqAvsf-243">
          <mxGeometry relative="1" as="geometry" />
        </mxCell>
        <mxCell id="qBWs9l1PIJ6vJ8OqAvsf-245" value="2" style="rounded=1;whiteSpace=wrap;html=1;fillColor=#d5e8d4;strokeColor=#82b366;fontSize=4;" vertex="1" parent="1">
          <mxGeometry x="472" y="440" width="6" height="20" as="geometry" />
        </mxCell>
        <mxCell id="qBWs9l1PIJ6vJ8OqAvsf-246" value="0" style="rounded=1;whiteSpace=wrap;html=1;fillColor=#d5e8d4;strokeColor=#82b366;fontSize=4;" vertex="1" parent="1">
          <mxGeometry x="490" y="440" width="6" height="20" as="geometry" />
        </mxCell>
        <mxCell id="qBWs9l1PIJ6vJ8OqAvsf-247" value="1" style="rounded=1;whiteSpace=wrap;html=1;fillColor=#d5e8d4;strokeColor=#82b366;fontSize=4;" vertex="1" parent="1">
          <mxGeometry x="496" y="440" width="6" height="20" as="geometry" />
        </mxCell>
        <mxCell id="qBWs9l1PIJ6vJ8OqAvsf-248" value="31" style="rounded=1;whiteSpace=wrap;html=1;fillColor=#d5e8d4;strokeColor=#82b366;fontSize=4;" vertex="1" parent="1">
          <mxGeometry x="512" y="440" width="8" height="20" as="geometry" />
        </mxCell>
        <mxCell id="qBWs9l1PIJ6vJ8OqAvsf-249" style="edgeStyle=orthogonalEdgeStyle;rounded=0;orthogonalLoop=1;jettySize=auto;html=1;exitX=1;exitY=0.5;exitDx=0;exitDy=0;entryX=0;entryY=0.5;entryDx=0;entryDy=0;strokeWidth=1;endSize=0;fontSize=4;endArrow=block;endFill=1;" edge="1" parent="1" source="qBWs9l1PIJ6vJ8OqAvsf-250" target="qBWs9l1PIJ6vJ8OqAvsf-248">
          <mxGeometry relative="1" as="geometry" />
        </mxCell>
        <mxCell id="qBWs9l1PIJ6vJ8OqAvsf-250" value="2" style="rounded=1;whiteSpace=wrap;html=1;fillColor=#d5e8d4;strokeColor=#82b366;fontSize=4;" vertex="1" parent="1">
          <mxGeometry x="502" y="440" width="6" height="20" as="geometry" />
        </mxCell>
        <mxCell id="qBWs9l1PIJ6vJ8OqAvsf-251" value="0" style="rounded=1;whiteSpace=wrap;html=1;fillColor=#d5e8d4;strokeColor=#82b366;fontSize=4;" vertex="1" parent="1">
          <mxGeometry x="520" y="440" width="6" height="20" as="geometry" />
        </mxCell>
        <mxCell id="qBWs9l1PIJ6vJ8OqAvsf-252" value="1" style="rounded=1;whiteSpace=wrap;html=1;fillColor=#d5e8d4;strokeColor=#82b366;fontSize=4;" vertex="1" parent="1">
          <mxGeometry x="526" y="440" width="6" height="20" as="geometry" />
        </mxCell>
        <mxCell id="qBWs9l1PIJ6vJ8OqAvsf-253" value="31" style="rounded=1;whiteSpace=wrap;html=1;fillColor=#d5e8d4;strokeColor=#82b366;fontSize=4;" vertex="1" parent="1">
          <mxGeometry x="542" y="440" width="8" height="20" as="geometry" />
        </mxCell>
        <mxCell id="qBWs9l1PIJ6vJ8OqAvsf-254" style="edgeStyle=orthogonalEdgeStyle;rounded=0;orthogonalLoop=1;jettySize=auto;html=1;exitX=1;exitY=0.5;exitDx=0;exitDy=0;entryX=0;entryY=0.5;entryDx=0;entryDy=0;strokeWidth=1;endSize=0;fontSize=4;endArrow=block;endFill=1;" edge="1" parent="1" source="qBWs9l1PIJ6vJ8OqAvsf-255" target="qBWs9l1PIJ6vJ8OqAvsf-253">
          <mxGeometry relative="1" as="geometry" />
        </mxCell>
        <mxCell id="qBWs9l1PIJ6vJ8OqAvsf-255" value="2" style="rounded=1;whiteSpace=wrap;html=1;fillColor=#d5e8d4;strokeColor=#82b366;fontSize=4;" vertex="1" parent="1">
          <mxGeometry x="532" y="440" width="6" height="20" as="geometry" />
        </mxCell>
        <mxCell id="qBWs9l1PIJ6vJ8OqAvsf-256" value="0" style="rounded=1;whiteSpace=wrap;html=1;fillColor=#d5e8d4;strokeColor=#82b366;fontSize=4;" vertex="1" parent="1">
          <mxGeometry x="550" y="440" width="6" height="20" as="geometry" />
        </mxCell>
        <mxCell id="qBWs9l1PIJ6vJ8OqAvsf-257" value="1" style="rounded=1;whiteSpace=wrap;html=1;fillColor=#d5e8d4;strokeColor=#82b366;fontSize=4;" vertex="1" parent="1">
          <mxGeometry x="556" y="440" width="6" height="20" as="geometry" />
        </mxCell>
        <mxCell id="qBWs9l1PIJ6vJ8OqAvsf-258" value="31" style="rounded=1;whiteSpace=wrap;html=1;fillColor=#d5e8d4;strokeColor=#82b366;fontSize=4;" vertex="1" parent="1">
          <mxGeometry x="572" y="440" width="8" height="20" as="geometry" />
        </mxCell>
        <mxCell id="qBWs9l1PIJ6vJ8OqAvsf-259" style="edgeStyle=orthogonalEdgeStyle;rounded=0;orthogonalLoop=1;jettySize=auto;html=1;exitX=1;exitY=0.5;exitDx=0;exitDy=0;entryX=0;entryY=0.5;entryDx=0;entryDy=0;strokeWidth=1;endSize=0;fontSize=4;endArrow=block;endFill=1;" edge="1" parent="1" source="qBWs9l1PIJ6vJ8OqAvsf-260" target="qBWs9l1PIJ6vJ8OqAvsf-258">
          <mxGeometry relative="1" as="geometry" />
        </mxCell>
        <mxCell id="qBWs9l1PIJ6vJ8OqAvsf-260" value="2" style="rounded=1;whiteSpace=wrap;html=1;fillColor=#d5e8d4;strokeColor=#82b366;fontSize=4;" vertex="1" parent="1">
          <mxGeometry x="562" y="440" width="6" height="20" as="geometry" />
        </mxCell>
        <mxCell id="qBWs9l1PIJ6vJ8OqAvsf-261" value="0" style="rounded=1;whiteSpace=wrap;html=1;fillColor=#d5e8d4;strokeColor=#82b366;fontSize=4;" vertex="1" parent="1">
          <mxGeometry x="580" y="440" width="6" height="20" as="geometry" />
        </mxCell>
        <mxCell id="qBWs9l1PIJ6vJ8OqAvsf-262" value="1" style="rounded=1;whiteSpace=wrap;html=1;fillColor=#d5e8d4;strokeColor=#82b366;fontSize=4;" vertex="1" parent="1">
          <mxGeometry x="586" y="440" width="6" height="20" as="geometry" />
        </mxCell>
        <mxCell id="qBWs9l1PIJ6vJ8OqAvsf-263" value="31" style="rounded=1;whiteSpace=wrap;html=1;fillColor=#d5e8d4;strokeColor=#82b366;fontSize=4;" vertex="1" parent="1">
          <mxGeometry x="602" y="440" width="8" height="20" as="geometry" />
        </mxCell>
        <mxCell id="qBWs9l1PIJ6vJ8OqAvsf-264" style="edgeStyle=orthogonalEdgeStyle;rounded=0;orthogonalLoop=1;jettySize=auto;html=1;exitX=1;exitY=0.5;exitDx=0;exitDy=0;entryX=0;entryY=0.5;entryDx=0;entryDy=0;strokeWidth=1;endSize=0;fontSize=4;endArrow=block;endFill=1;" edge="1" parent="1" source="qBWs9l1PIJ6vJ8OqAvsf-265" target="qBWs9l1PIJ6vJ8OqAvsf-263">
          <mxGeometry relative="1" as="geometry" />
        </mxCell>
        <mxCell id="qBWs9l1PIJ6vJ8OqAvsf-265" value="2" style="rounded=1;whiteSpace=wrap;html=1;fillColor=#d5e8d4;strokeColor=#82b366;fontSize=4;" vertex="1" parent="1">
          <mxGeometry x="592" y="440" width="6" height="20" as="geometry" />
        </mxCell>
        <mxCell id="qBWs9l1PIJ6vJ8OqAvsf-266" value="0" style="rounded=1;whiteSpace=wrap;html=1;fillColor=#d5e8d4;strokeColor=#82b366;fontSize=4;" vertex="1" parent="1">
          <mxGeometry x="610" y="440" width="6" height="20" as="geometry" />
        </mxCell>
        <mxCell id="qBWs9l1PIJ6vJ8OqAvsf-267" value="1" style="rounded=1;whiteSpace=wrap;html=1;fillColor=#d5e8d4;strokeColor=#82b366;fontSize=4;" vertex="1" parent="1">
          <mxGeometry x="616" y="440" width="6" height="20" as="geometry" />
        </mxCell>
        <mxCell id="qBWs9l1PIJ6vJ8OqAvsf-268" value="31" style="rounded=1;whiteSpace=wrap;html=1;fillColor=#d5e8d4;strokeColor=#82b366;fontSize=4;" vertex="1" parent="1">
          <mxGeometry x="632" y="440" width="8" height="20" as="geometry" />
        </mxCell>
        <mxCell id="qBWs9l1PIJ6vJ8OqAvsf-269" style="edgeStyle=orthogonalEdgeStyle;rounded=0;orthogonalLoop=1;jettySize=auto;html=1;exitX=1;exitY=0.5;exitDx=0;exitDy=0;entryX=0;entryY=0.5;entryDx=0;entryDy=0;strokeWidth=1;endSize=0;fontSize=4;endArrow=block;endFill=1;" edge="1" parent="1" source="qBWs9l1PIJ6vJ8OqAvsf-270" target="qBWs9l1PIJ6vJ8OqAvsf-268">
          <mxGeometry relative="1" as="geometry" />
        </mxCell>
        <mxCell id="qBWs9l1PIJ6vJ8OqAvsf-270" value="2" style="rounded=1;whiteSpace=wrap;html=1;fillColor=#d5e8d4;strokeColor=#82b366;fontSize=4;" vertex="1" parent="1">
          <mxGeometry x="622" y="440" width="6" height="20" as="geometry" />
        </mxCell>
        <mxCell id="qBWs9l1PIJ6vJ8OqAvsf-271" value="0" style="rounded=1;whiteSpace=wrap;html=1;fillColor=#d5e8d4;strokeColor=#82b366;fontSize=4;" vertex="1" parent="1">
          <mxGeometry x="660" y="440" width="6" height="20" as="geometry" />
        </mxCell>
        <mxCell id="qBWs9l1PIJ6vJ8OqAvsf-272" value="1" style="rounded=1;whiteSpace=wrap;html=1;fillColor=#d5e8d4;strokeColor=#82b366;fontSize=4;" vertex="1" parent="1">
          <mxGeometry x="666" y="440" width="6" height="20" as="geometry" />
        </mxCell>
        <mxCell id="qBWs9l1PIJ6vJ8OqAvsf-273" value="31" style="rounded=1;whiteSpace=wrap;html=1;fillColor=#d5e8d4;strokeColor=#82b366;fontSize=4;" vertex="1" parent="1">
          <mxGeometry x="682" y="440" width="8" height="20" as="geometry" />
        </mxCell>
        <mxCell id="qBWs9l1PIJ6vJ8OqAvsf-274" style="edgeStyle=orthogonalEdgeStyle;rounded=0;orthogonalLoop=1;jettySize=auto;html=1;exitX=1;exitY=0.5;exitDx=0;exitDy=0;entryX=0;entryY=0.5;entryDx=0;entryDy=0;strokeWidth=1;endSize=0;fontSize=4;endArrow=block;endFill=1;" edge="1" parent="1" source="qBWs9l1PIJ6vJ8OqAvsf-275" target="qBWs9l1PIJ6vJ8OqAvsf-273">
          <mxGeometry relative="1" as="geometry" />
        </mxCell>
        <mxCell id="qBWs9l1PIJ6vJ8OqAvsf-275" value="2" style="rounded=1;whiteSpace=wrap;html=1;fillColor=#d5e8d4;strokeColor=#82b366;fontSize=4;" vertex="1" parent="1">
          <mxGeometry x="672" y="440" width="6" height="20" as="geometry" />
        </mxCell>
        <mxCell id="qBWs9l1PIJ6vJ8OqAvsf-276" value="0" style="rounded=1;whiteSpace=wrap;html=1;fillColor=#d5e8d4;strokeColor=#82b366;fontSize=4;" vertex="1" parent="1">
          <mxGeometry x="690" y="440" width="6" height="20" as="geometry" />
        </mxCell>
        <mxCell id="qBWs9l1PIJ6vJ8OqAvsf-277" value="1" style="rounded=1;whiteSpace=wrap;html=1;fillColor=#d5e8d4;strokeColor=#82b366;fontSize=4;" vertex="1" parent="1">
          <mxGeometry x="696" y="440" width="6" height="20" as="geometry" />
        </mxCell>
        <mxCell id="qBWs9l1PIJ6vJ8OqAvsf-278" value="31" style="rounded=1;whiteSpace=wrap;html=1;fillColor=#d5e8d4;strokeColor=#82b366;fontSize=4;" vertex="1" parent="1">
          <mxGeometry x="712" y="440" width="8" height="20" as="geometry" />
        </mxCell>
        <mxCell id="qBWs9l1PIJ6vJ8OqAvsf-279" style="edgeStyle=orthogonalEdgeStyle;rounded=0;orthogonalLoop=1;jettySize=auto;html=1;exitX=1;exitY=0.5;exitDx=0;exitDy=0;entryX=0;entryY=0.5;entryDx=0;entryDy=0;strokeWidth=1;endSize=0;fontSize=4;endArrow=block;endFill=1;" edge="1" parent="1" source="qBWs9l1PIJ6vJ8OqAvsf-280" target="qBWs9l1PIJ6vJ8OqAvsf-278">
          <mxGeometry relative="1" as="geometry" />
        </mxCell>
        <mxCell id="qBWs9l1PIJ6vJ8OqAvsf-280" value="2" style="rounded=1;whiteSpace=wrap;html=1;fillColor=#d5e8d4;strokeColor=#82b366;fontSize=4;" vertex="1" parent="1">
          <mxGeometry x="702" y="440" width="6" height="20" as="geometry" />
        </mxCell>
        <mxCell id="qBWs9l1PIJ6vJ8OqAvsf-281" value="0" style="rounded=1;whiteSpace=wrap;html=1;fillColor=#d5e8d4;strokeColor=#82b366;fontSize=4;" vertex="1" parent="1">
          <mxGeometry x="720" y="440" width="6" height="20" as="geometry" />
        </mxCell>
        <mxCell id="qBWs9l1PIJ6vJ8OqAvsf-282" value="1" style="rounded=1;whiteSpace=wrap;html=1;fillColor=#d5e8d4;strokeColor=#82b366;fontSize=4;" vertex="1" parent="1">
          <mxGeometry x="726" y="440" width="6" height="20" as="geometry" />
        </mxCell>
        <mxCell id="qBWs9l1PIJ6vJ8OqAvsf-283" value="31" style="rounded=1;whiteSpace=wrap;html=1;fillColor=#d5e8d4;strokeColor=#82b366;fontSize=4;" vertex="1" parent="1">
          <mxGeometry x="742" y="440" width="8" height="20" as="geometry" />
        </mxCell>
        <mxCell id="qBWs9l1PIJ6vJ8OqAvsf-284" style="edgeStyle=orthogonalEdgeStyle;rounded=0;orthogonalLoop=1;jettySize=auto;html=1;exitX=1;exitY=0.5;exitDx=0;exitDy=0;entryX=0;entryY=0.5;entryDx=0;entryDy=0;strokeWidth=1;endSize=0;fontSize=4;endArrow=block;endFill=1;" edge="1" parent="1" source="qBWs9l1PIJ6vJ8OqAvsf-285" target="qBWs9l1PIJ6vJ8OqAvsf-283">
          <mxGeometry relative="1" as="geometry" />
        </mxCell>
        <mxCell id="qBWs9l1PIJ6vJ8OqAvsf-285" value="2" style="rounded=1;whiteSpace=wrap;html=1;fillColor=#d5e8d4;strokeColor=#82b366;fontSize=4;" vertex="1" parent="1">
          <mxGeometry x="732" y="440" width="6" height="20" as="geometry" />
        </mxCell>
        <mxCell id="qBWs9l1PIJ6vJ8OqAvsf-286" value="0" style="rounded=1;whiteSpace=wrap;html=1;fillColor=#d5e8d4;strokeColor=#82b366;fontSize=4;" vertex="1" parent="1">
          <mxGeometry x="750" y="440" width="6" height="20" as="geometry" />
        </mxCell>
        <mxCell id="qBWs9l1PIJ6vJ8OqAvsf-287" value="1" style="rounded=1;whiteSpace=wrap;html=1;fillColor=#d5e8d4;strokeColor=#82b366;fontSize=4;" vertex="1" parent="1">
          <mxGeometry x="756" y="440" width="6" height="20" as="geometry" />
        </mxCell>
        <mxCell id="qBWs9l1PIJ6vJ8OqAvsf-288" value="31" style="rounded=1;whiteSpace=wrap;html=1;fillColor=#d5e8d4;strokeColor=#82b366;fontSize=4;" vertex="1" parent="1">
          <mxGeometry x="772" y="440" width="8" height="20" as="geometry" />
        </mxCell>
        <mxCell id="qBWs9l1PIJ6vJ8OqAvsf-289" style="edgeStyle=orthogonalEdgeStyle;rounded=0;orthogonalLoop=1;jettySize=auto;html=1;exitX=1;exitY=0.5;exitDx=0;exitDy=0;entryX=0;entryY=0.5;entryDx=0;entryDy=0;strokeWidth=1;endSize=0;fontSize=4;endArrow=block;endFill=1;" edge="1" parent="1" source="qBWs9l1PIJ6vJ8OqAvsf-290" target="qBWs9l1PIJ6vJ8OqAvsf-288">
          <mxGeometry relative="1" as="geometry" />
        </mxCell>
        <mxCell id="qBWs9l1PIJ6vJ8OqAvsf-290" value="2" style="rounded=1;whiteSpace=wrap;html=1;fillColor=#d5e8d4;strokeColor=#82b366;fontSize=4;" vertex="1" parent="1">
          <mxGeometry x="762" y="440" width="6" height="20" as="geometry" />
        </mxCell>
        <mxCell id="qBWs9l1PIJ6vJ8OqAvsf-291" value="0" style="rounded=1;whiteSpace=wrap;html=1;fillColor=#d5e8d4;strokeColor=#82b366;fontSize=4;" vertex="1" parent="1">
          <mxGeometry x="780" y="440" width="6" height="20" as="geometry" />
        </mxCell>
        <mxCell id="qBWs9l1PIJ6vJ8OqAvsf-292" value="1" style="rounded=1;whiteSpace=wrap;html=1;fillColor=#d5e8d4;strokeColor=#82b366;fontSize=4;" vertex="1" parent="1">
          <mxGeometry x="786" y="440" width="6" height="20" as="geometry" />
        </mxCell>
        <mxCell id="qBWs9l1PIJ6vJ8OqAvsf-293" value="31" style="rounded=1;whiteSpace=wrap;html=1;fillColor=#d5e8d4;strokeColor=#82b366;fontSize=4;" vertex="1" parent="1">
          <mxGeometry x="802" y="440" width="8" height="20" as="geometry" />
        </mxCell>
        <mxCell id="qBWs9l1PIJ6vJ8OqAvsf-294" style="edgeStyle=orthogonalEdgeStyle;rounded=0;orthogonalLoop=1;jettySize=auto;html=1;exitX=1;exitY=0.5;exitDx=0;exitDy=0;entryX=0;entryY=0.5;entryDx=0;entryDy=0;strokeWidth=1;endSize=0;fontSize=4;endArrow=block;endFill=1;" edge="1" parent="1" source="qBWs9l1PIJ6vJ8OqAvsf-295" target="qBWs9l1PIJ6vJ8OqAvsf-293">
          <mxGeometry relative="1" as="geometry" />
        </mxCell>
        <mxCell id="qBWs9l1PIJ6vJ8OqAvsf-295" value="2" style="rounded=1;whiteSpace=wrap;html=1;fillColor=#d5e8d4;strokeColor=#82b366;fontSize=4;" vertex="1" parent="1">
          <mxGeometry x="792" y="440" width="6" height="20" as="geometry" />
        </mxCell>
        <mxCell id="qBWs9l1PIJ6vJ8OqAvsf-296" value="0" style="rounded=1;whiteSpace=wrap;html=1;fillColor=#d5e8d4;strokeColor=#82b366;fontSize=4;" vertex="1" parent="1">
          <mxGeometry x="810" y="440" width="6" height="20" as="geometry" />
        </mxCell>
        <mxCell id="qBWs9l1PIJ6vJ8OqAvsf-297" value="1" style="rounded=1;whiteSpace=wrap;html=1;fillColor=#d5e8d4;strokeColor=#82b366;fontSize=4;" vertex="1" parent="1">
          <mxGeometry x="816" y="440" width="6" height="20" as="geometry" />
        </mxCell>
        <mxCell id="qBWs9l1PIJ6vJ8OqAvsf-298" value="31" style="rounded=1;whiteSpace=wrap;html=1;fillColor=#d5e8d4;strokeColor=#82b366;fontSize=4;" vertex="1" parent="1">
          <mxGeometry x="832" y="440" width="8" height="20" as="geometry" />
        </mxCell>
        <mxCell id="qBWs9l1PIJ6vJ8OqAvsf-299" style="edgeStyle=orthogonalEdgeStyle;rounded=0;orthogonalLoop=1;jettySize=auto;html=1;exitX=1;exitY=0.5;exitDx=0;exitDy=0;entryX=0;entryY=0.5;entryDx=0;entryDy=0;strokeWidth=1;endSize=0;fontSize=4;endArrow=block;endFill=1;" edge="1" parent="1" source="qBWs9l1PIJ6vJ8OqAvsf-300" target="qBWs9l1PIJ6vJ8OqAvsf-298">
          <mxGeometry relative="1" as="geometry" />
        </mxCell>
        <mxCell id="qBWs9l1PIJ6vJ8OqAvsf-300" value="2" style="rounded=1;whiteSpace=wrap;html=1;fillColor=#d5e8d4;strokeColor=#82b366;fontSize=4;" vertex="1" parent="1">
          <mxGeometry x="822" y="440" width="6" height="20" as="geometry" />
        </mxCell>
        <mxCell id="qBWs9l1PIJ6vJ8OqAvsf-301" value="0" style="rounded=1;whiteSpace=wrap;html=1;fillColor=#d5e8d4;strokeColor=#82b366;fontSize=4;" vertex="1" parent="1">
          <mxGeometry x="840" y="440" width="6" height="20" as="geometry" />
        </mxCell>
        <mxCell id="qBWs9l1PIJ6vJ8OqAvsf-302" value="1" style="rounded=1;whiteSpace=wrap;html=1;fillColor=#d5e8d4;strokeColor=#82b366;fontSize=4;" vertex="1" parent="1">
          <mxGeometry x="846" y="440" width="6" height="20" as="geometry" />
        </mxCell>
        <mxCell id="qBWs9l1PIJ6vJ8OqAvsf-303" value="31" style="rounded=1;whiteSpace=wrap;html=1;fillColor=#d5e8d4;strokeColor=#82b366;fontSize=4;" vertex="1" parent="1">
          <mxGeometry x="862" y="440" width="8" height="20" as="geometry" />
        </mxCell>
        <mxCell id="qBWs9l1PIJ6vJ8OqAvsf-304" style="edgeStyle=orthogonalEdgeStyle;rounded=0;orthogonalLoop=1;jettySize=auto;html=1;exitX=1;exitY=0.5;exitDx=0;exitDy=0;entryX=0;entryY=0.5;entryDx=0;entryDy=0;strokeWidth=1;endSize=0;fontSize=4;endArrow=block;endFill=1;" edge="1" parent="1" source="qBWs9l1PIJ6vJ8OqAvsf-305" target="qBWs9l1PIJ6vJ8OqAvsf-303">
          <mxGeometry relative="1" as="geometry" />
        </mxCell>
        <mxCell id="qBWs9l1PIJ6vJ8OqAvsf-305" value="2" style="rounded=1;whiteSpace=wrap;html=1;fillColor=#d5e8d4;strokeColor=#82b366;fontSize=4;" vertex="1" parent="1">
          <mxGeometry x="852" y="440" width="6" height="20" as="geometry" />
        </mxCell>
        <mxCell id="qBWs9l1PIJ6vJ8OqAvsf-306" value="0" style="rounded=1;whiteSpace=wrap;html=1;fillColor=#d5e8d4;strokeColor=#82b366;fontSize=4;" vertex="1" parent="1">
          <mxGeometry x="870" y="440" width="6" height="20" as="geometry" />
        </mxCell>
        <mxCell id="qBWs9l1PIJ6vJ8OqAvsf-307" value="1" style="rounded=1;whiteSpace=wrap;html=1;fillColor=#d5e8d4;strokeColor=#82b366;fontSize=4;" vertex="1" parent="1">
          <mxGeometry x="876" y="440" width="6" height="20" as="geometry" />
        </mxCell>
        <mxCell id="qBWs9l1PIJ6vJ8OqAvsf-308" value="31" style="rounded=1;whiteSpace=wrap;html=1;fillColor=#d5e8d4;strokeColor=#82b366;fontSize=4;" vertex="1" parent="1">
          <mxGeometry x="892" y="440" width="8" height="20" as="geometry" />
        </mxCell>
        <mxCell id="qBWs9l1PIJ6vJ8OqAvsf-309" style="edgeStyle=orthogonalEdgeStyle;rounded=0;orthogonalLoop=1;jettySize=auto;html=1;exitX=1;exitY=0.5;exitDx=0;exitDy=0;entryX=0;entryY=0.5;entryDx=0;entryDy=0;strokeWidth=1;endSize=0;fontSize=4;endArrow=block;endFill=1;" edge="1" parent="1" source="qBWs9l1PIJ6vJ8OqAvsf-310" target="qBWs9l1PIJ6vJ8OqAvsf-308">
          <mxGeometry relative="1" as="geometry" />
        </mxCell>
        <mxCell id="qBWs9l1PIJ6vJ8OqAvsf-310" value="2" style="rounded=1;whiteSpace=wrap;html=1;fillColor=#d5e8d4;strokeColor=#82b366;fontSize=4;" vertex="1" parent="1">
          <mxGeometry x="882" y="440" width="6" height="20" as="geometry" />
        </mxCell>
      </root>
    </mxGraphModel>
  </diagram>
</mxfile>
